<?xml version="1.0" encoding="utf-8"?>
<!-- Generator: Adobe Illustrator 25.4.0, SVG Export Plug-In . SVG Version: 6.00 Build 0)  -->
<svg version="1.1" id="Layer_1" xmlns="http://www.w3.org/2000/svg" xmlns:xlink="http://www.w3.org/1999/xlink" x="0px" y="0px"
	 viewBox="0 0 39 39" style="enable-background:new 0 0 39 39;" xml:space="preserve">
<style type="text/css">
	.st0{fill:none;stroke:#70E61C;stroke-width:2;}
	.st1{fill:#70E61C;}
</style>
<path class="st0" d="M19.5,1L19.5,1C29.7,1,38,9.3,38,19.5l0,0C38,29.7,29.7,38,19.5,38l0,0C9.3,38,1,29.7,1,19.5l0,0
	C1,9.3,9.3,1,19.5,1z"/>
<path class="st1" d="M18,15.8l-4.7,4.7c-0.4,0.4-1,0.4-1.4,0c-0.4-0.4-0.4-1,0-1.4l6.4-6.4c0.4-0.4,1-0.4,1.4,0l6.4,6.4
	c0.4,0.4,0.4,1,0,1.4c-0.4,0.4-1,0.4-1.4,0L20,15.8V27c0,0.6-0.4,1-1,1s-1-0.4-1-1V15.8z"/>
</svg>
