<?xml version="1.0" encoding="utf-8"?>
<!-- Generator: Adobe Illustrator 25.4.0, SVG Export Plug-In . SVG Version: 6.00 Build 0)  -->
<svg version="1.1" id="Layer_1" xmlns="http://www.w3.org/2000/svg" xmlns:xlink="http://www.w3.org/1999/xlink" x="0px" y="0px"
	 viewBox="0 0 40 40" style="enable-background:new 0 0 40 40;" xml:space="preserve">
<style type="text/css">
	.st0{fill:#70E61C;}
</style>
<g>
	<path class="st0" d="M25.6,21.3H10.7c-0.4,0-0.7-0.1-0.9-0.4c-0.3-0.3-0.4-0.6-0.4-1s0.1-0.7,0.4-1c0.3-0.3,0.6-0.4,0.9-0.4h14.9
		L19,12.1c-0.3-0.3-0.4-0.6-0.4-0.9c0-0.4,0.1-0.7,0.4-0.9s0.6-0.4,0.9-0.4c0.4,0,0.7,0.1,0.9,0.4l8.8,8.8c0.1,0.1,0.2,0.3,0.3,0.4
		C30,19.7,30,19.8,30,20s0,0.3-0.1,0.5s-0.2,0.3-0.3,0.4l-8.8,8.8c-0.2,0.2-0.5,0.4-0.9,0.4s-0.7-0.1-1-0.4s-0.4-0.6-0.4-1
		s0.1-0.7,0.4-0.9L25.6,21.3z"/>
</g>
</svg>
