<?xml version="1.0" encoding="utf-8"?>
<!-- Generator: Adobe Illustrator 25.4.0, SVG Export Plug-In . SVG Version: 6.00 Build 0)  -->
<svg version="1.1" id="Layer_1" xmlns="http://www.w3.org/2000/svg" xmlns:xlink="http://www.w3.org/1999/xlink" x="0px" y="0px"
	 viewBox="0 0 60 60" style="enable-background:new 0 0 60 60;" xml:space="preserve">
<style type="text/css">
	.st0{fill:none;}
	.st1{fill:#9747FF;}
</style>
<g>
	<rect y="0" class="st0" width="60" height="59.9"/>
	<g>
		<path class="st1" d="M49.8,25.2L30.6,36.2c-0.3,0.2-0.8,0.2-1.1,0L10.3,25.2c-0.8-0.4-0.8-1.5,0-2l19.2-10.9
			c0.3-0.2,0.8-0.2,1.1,0l19.2,10.9C50.6,23.7,50.6,24.8,49.8,25.2z"/>
		<path class="st1" d="M46.5,28.9v9c0,0.4-0.2,0.8-0.6,1l-15.3,8.7c-0.3,0.2-0.8,0.2-1.1,0l-15.3-8.7c-0.4-0.2-0.6-0.6-0.6-1v-9
			l8.5,4.8l7.4,4.2c0.3,0.2,0.8,0.2,1.1,0l7.4-4.2L46.5,28.9z"/>
		<path class="st1" d="M55.5,14l0.5-0.4c0.6-0.4,0.6-1.4-0.1-1.7l-4.2-2c-0.7-0.3-1.5,0.2-1.5,1l0.4,4.6c0.1,0.8,1,1.2,1.6,0.7
			l0.8-0.5c6.7,10.8,4.9,25.1-4.5,33.9c-9.2,8.6-23.4,9.7-33.7,2.5c-0.7-0.5-1.6-0.3-2.1,0.4c-0.5,0.7-0.3,1.6,0.4,2.1
			c5.1,3.5,11.1,5.3,17,5.3c7.4,0,14.8-2.7,20.6-8.1C61,42.1,63,26.1,55.5,14z"/>
		<path class="st1" d="M47.1,5.3c-11.5-8-27.3-6.8-37.6,2.8c-10.7,10-12.6,26-4.6,38.3l-0.7,0.5c-0.6,0.4-0.6,1.4,0.1,1.7l4.2,2
			c0.7,0.3,1.5-0.2,1.5-1l-0.4-4.6c-0.1-0.8-1-1.2-1.6-0.7l-0.5,0.4c-7.1-11-5.4-25.3,4.2-34.3C20.8,1.7,35,0.7,45.4,7.8
			c0.7,0.5,1.6,0.3,2.1-0.4C48,6.7,47.8,5.8,47.1,5.3z"/>
	</g>
</g>
</svg>
