<?xml version="1.0" encoding="utf-8"?>
<!-- Generator: Adobe Illustrator 25.4.0, SVG Export Plug-In . SVG Version: 6.00 Build 0)  -->
<svg version="1.1" id="Layer_1" xmlns="http://www.w3.org/2000/svg" xmlns:xlink="http://www.w3.org/1999/xlink" x="0px" y="0px"
	 viewBox="0 0 300 300" style="enable-background:new 0 0 300 300;" xml:space="preserve">
<style type="text/css">
	.st0{fill:#81C341;}
	.st1{fill:#FFFFFF;}
	.st2{fill:#74459B;}
</style>
<path class="st0" d="M6.7,59.9H96v20.3H31.6v44.7h50.3v20.3H31.6v66.4H6.7V59.9z"/>
<path class="st1" d="M135.7,110.7c16.5,0,27.8,7.8,33.8,15.8v-14.2h20.4v97.6h-20.4v-14.5c-6.2,8.3-17.9,16.1-34.2,16.1
	c-25.3,0-45.7-20.7-45.7-50.9C89.6,130.5,110,110.7,135.7,110.7z M139.9,128.2c-15.1,0-29.6,11.3-29.6,32.4s14.5,33.3,29.6,33.3
	c15.2,0,29.6-11.9,29.6-33C169.5,140.1,155.2,128.2,139.9,128.2z"/>
<path class="st2" d="M251.8,110.7c25.9,0,45.9,19.8,45.9,50c0,30.1-20.2,50.9-45.9,50.9c-16.1,0-27.6-7.3-34-15.8V210h-20.2V78.8
	h20.2v48C224.1,118,236.4,110.7,251.8,110.7z M247.4,128.2c-15.1,0-29.6,11.9-29.6,32.8c0,21.1,14.5,33,29.6,33
	c15.2,0,29.8-12.2,29.8-33.3C277.1,139.6,262.6,128.2,247.4,128.2z"/>
</svg>
