<svg width="24" height="32" viewBox="0 0 24 32" fill="none" xmlns="http://www.w3.org/2000/svg">
<path d="M19.6374 18.3951C18.5009 19.9538 17.3066 21.5918 16.6522 23.4937H7.35066C6.6934 21.5696 5.47543 19.9072 4.31858 18.3283L4.30571 18.3107L4.30536 18.3103C3.97882 17.8657 3.65667 17.427 3.34749 16.983L3.34696 16.9823C2.16298 15.2888 1.46918 13.2258 1.46918 11C1.46918 5.20246 6.1828 0.5 12 0.5C17.817 0.5 22.5308 5.20228 22.5308 11.0062C22.5308 13.2316 21.8373 15.2887 20.6526 16.9892L20.6525 16.9893C20.3434 17.4332 20.0212 17.8719 19.6947 18.3165L19.6936 18.318L19.6374 18.3951ZM16.514 27C16.514 29.485 14.4954 31.5 12 31.5C9.50459 31.5 7.48599 29.485 7.48599 27V26.5H16.514V27ZM5.98319 12.5C6.80956 12.5 7.48599 11.8275 7.48599 11C7.48599 8.51496 9.50459 6.5 12 6.5C12.8264 6.5 13.5028 5.82746 13.5028 5C13.5028 4.17254 12.8264 3.5 12 3.5C7.84559 3.5 4.48039 6.85379 4.48039 11C4.48039 11.8275 5.15683 12.5 5.98319 12.5Z" stroke="#70E61C"/>
</svg>
