<?xml version="1.0" encoding="utf-8"?>
<!-- Generator: Adobe Illustrator 25.4.0, SVG Export Plug-In . SVG Version: 6.00 Build 0)  -->
<svg version="1.1" id="Layer_1" xmlns="http://www.w3.org/2000/svg" xmlns:xlink="http://www.w3.org/1999/xlink" x="0px" y="0px"
	 viewBox="0 0 600 300" style="enable-background:new 0 0 600 300;" xml:space="preserve">
<style type="text/css">
	.st0{fill:#FFFFFF;}
	.st1{fill:#74459B;}
	.st2{fill:#81C341;}
</style>
<path class="st0" d="M9.7,94.3h72.5v16.5H29.9v36.3h40.8v16.5H29.9v53.9H9.7V94.3z"/>
<path class="st0" d="M140.3,118.2c16.5,0,27.8,7.8,33.8,15.8v-14.2h20.4v97.6h-20.4v-14.5c-6.2,8.3-17.9,16.1-34.2,16.1
	c-25.3,0-45.7-20.7-45.7-50.9C94.2,138,114.6,118.2,140.3,118.2z M144.5,135.7c-15.1,0-29.6,11.3-29.6,32.4
	c0,21.1,14.5,33.3,29.6,33.3c15.2,0,29.6-11.9,29.6-33C174.1,147.6,159.8,135.7,144.5,135.7z"/>
<path class="st0" d="M275.3,118.2c25.9,0,45.9,19.8,45.9,50c0,30.1-20.2,50.9-45.9,50.9c-16.1,0-27.6-7.3-34-15.8v14.2h-20.2V86.3
	h20.2v48C247.6,125.5,259.9,118.2,275.3,118.2z M270.9,135.7c-15.1,0-29.6,11.9-29.6,32.8c0,21.1,14.5,33,29.6,33
	c15.2,0,29.8-12.2,29.8-33.3C300.6,147.1,286.1,135.7,270.9,135.7z"/>
<path class="st1" d="M338.5,93.9c0-7.3,5.7-12.9,12.9-12.9c7.1,0,12.8,5.7,12.8,12.9c0,7.3-5.7,12.9-12.8,12.9
	C344.2,106.8,338.5,101.2,338.5,93.9z"/>
<rect x="341.2" y="119.8" class="st0" width="20.2" height="97.6"/>
<path class="st0" d="M381.4,168.5c0-30.7,22-50.3,49.8-50.3c27.8,0,49.8,19.7,49.8,50.3S458.3,219,430.3,219
	C402.5,219,381.4,199.2,381.4,168.5z M460.3,168.5c0-22.2-14.4-32.8-29.4-32.8c-15.2,0-28.9,10.6-28.9,32.8c0,22.2,13.1,33,28.4,33
	C445.4,201.5,460.3,190.7,460.3,168.5z"/>
<rect x="501" y="119.8" class="st0" width="20.2" height="97.6"/>
<path class="st2" d="M570.3,162.8c0-17.9-9.7-27.1-24.5-27.1c-14.9,0-24.6,9.2-24.6,27.1l-5.3-22c4.3-13.8,18.4-22.7,34.4-22.7
	c22.9,0,40.1,14.4,40.1,41.6v57.6h-20V162.8z"/>
</svg>
