<?xml version="1.0" encoding="utf-8"?>
<!-- Generator: Adobe Illustrator 25.4.0, SVG Export Plug-In . SVG Version: 6.00 Build 0)  -->
<svg version="1.1" id="Layer_1" xmlns="http://www.w3.org/2000/svg" xmlns:xlink="http://www.w3.org/1999/xlink" x="0px" y="0px"
	 viewBox="0 0 827 934" style="enable-background:new 0 0 827 934;" xml:space="preserve">
<style type="text/css">
	.st0{fill:#11243D;}
</style>
<g>
	<path class="st0" d="M437.7,685.1c-16.8,6-33,11.6-48.1,16.5c-105.4,16.9-12,1.5,27.5,29.9C436.5,745.5,448.4,713.7,437.7,685.1
		c169.8-61.2,400-174.6,245.1-245.9c-212.8-97.9-221-120.5-253.2-191.9c-32.2-71.4-144-226.6-220.3-115.3
		c-76.3,111.3-97.8,162.2-94.8,230.1c3,67.9,133.4,96.5,9.8,191.6C0.6,648.8,161.6,933.6,295.1,810.6C428.6,687.5,167,721,316,660.5
		C391.5,629.8,426.6,655.8,437.7,685.1z"/>
</g>
</svg>
