<?xml version="1.0" encoding="utf-8"?>
<!-- Generator: Adobe Illustrator 25.4.0, SVG Export Plug-In . SVG Version: 6.00 Build 0)  -->
<svg version="1.1" id="Layer_1" xmlns="http://www.w3.org/2000/svg" xmlns:xlink="http://www.w3.org/1999/xlink" x="0px" y="0px"
	 viewBox="0 0 859 820" style="enable-background:new 0 0 859 820;" xml:space="preserve">
<style type="text/css">
	.st0{fill:#9747FF;}
	.st1{fill:#70E61C;}
</style>
<g>
	<path class="st0" d="M80,356.4c60.3-131.1,98.5-176.5,110.1-182.8c0,0,37.2-129.8,68.3,10.6s153.4-57.4,153.4-57.4l35.7,229.6
		l-139.1,83.4l139.1,50.9L383.2,727L163.1,527l145.2-87.1L80,356.4z"/>
</g>
<g>
	<path class="st1" d="M416.5,381.2c-173.2-47.9,73.7-287.5,73.7-287.5S549,297.4,630,202.8c81.1-94.6,24.4,94.6,98.2,180.9
		s14.9,111.4,14.9,111.4s-76.7,142.5-139.3,89.8c-62.6-52.7-135.2-86-162.7-132.4c-24.8-41.8-8.3-56.8,17.7-59.9
		C446.5,389.3,432.4,385.6,416.5,381.2z"/>
</g>
</svg>
